Coordinates
version=1
nRows=11
nColumns=40
inDegrees=yes

Units are S.I. units (second, meters, Newtons, ...)
If the header above contains a line with 'inDegrees', this indicates whether rotational values are in degrees (yes) or radians (no).

endheader
time	pelvis_tilt	pelvis_list	pelvis_rotation	pelvis_tx	pelvis_ty	pelvis_tz	hip_flexion_r	hip_adduction_r	hip_rotation_r	knee_angle_r	knee_angle_r_beta	ankle_angle_r	subtalar_angle_r	mtp_angle_r	hip_flexion_l	hip_adduction_l	hip_rotation_l	knee_angle_l	knee_angle_l_beta	ankle_angle_l	subtalar_angle_l	mtp_angle_l	lumbar_extension	lumbar_bending	lumbar_rotation	arm_flex_r	arm_add_r	arm_rot_r	elbow_flex_r	pro_sup_r	wrist_flex_r	wrist_dev_r	arm_flex_l	arm_add_l	arm_rot_l	elbow_flex_l	pro_sup_l	wrist_flex_l	wrist_dev_l
      0.35200000	     23.23740013	     -0.60410760	      0.49937955	      0.49150356	      0.98514920	     -0.29011710	    -22.95147364	      4.43720583	     -7.24706803	      7.68089874	      0.13405697	     -8.56651839	      0.00000000	      0.00000000	    -11.53566205	     -2.49811430	      1.07336159	     56.15185222	      0.98003470	    -16.27334063	      0.00000000	      0.00000000	    -36.55419849	      2.63573623	     -1.34894797	     -0.90851189	    -15.70823982	      9.49502505	     49.15383921	     73.63871222	      0.00000000	      0.00000000	      2.17681809	    -24.38698656	     22.08953603	     45.73485295	     84.13342935	      0.00000000	      0.00000000
      0.35600000	     23.28448917	     -0.52635101	      0.39647938	      0.49706114	      0.98554830	     -0.28960887	    -23.61126675	      4.39021745	     -7.25574529	      7.19297673	      0.12554113	     -8.62764043	      0.00000000	      0.00000000	    -11.03436006	     -2.38589364	      1.01085184	     55.81189116	      0.97410126	    -15.70713235	      0.00000000	      0.00000000	    -36.60128336	      2.45556826	     -1.25522787	     -0.77003311	    -15.72405451	      9.74273137	     49.31832689	     73.70678463	      0.00000000	      0.00000000	      2.02499070	    -24.47634717	     22.01543845	     45.78229666	     84.18414327	      0.00000000	      0.00000000
      0.36000000	     23.28999257	     -0.57768100	      0.26650894	      0.50206616	      0.98593591	     -0.28919265	    -23.99168237	      4.41670933	     -7.40313350	      7.13554215	      0.12453870	     -8.58614267	      0.00000000	      0.00000000	    -10.39147359	     -2.35484513	      1.01112276	     55.58020854	      0.97005764	    -15.56098001	      0.00000000	      0.00000000	    -36.68423475	      2.39312897	     -1.08845652	     -0.55186518	    -15.67869806	      9.75374964	     49.48924101	     73.71196389	      0.00000000	      0.00000000	      1.95687596	    -24.52400553	     22.02919051	     45.78143587	     84.19044162	      0.00000000	      0.00000000
      0.36400000	     23.19721512	     -0.52625519	      0.20981301	      0.50747821	      0.98600436	     -0.28887287	    -24.55375268	      4.40883605	     -7.26369937	      6.48102324	      0.11311519	     -8.81233933	      0.00000000	      0.00000000	     -9.68997351	     -2.22425947	      1.06547467	     55.41871528	      0.96723905	    -14.53516554	      0.00000000	      0.00000000	    -36.61538669	      2.26810180	     -0.93711329	     -0.56265898	    -15.75541081	      9.87717694	     49.89340691	     73.80586557	      0.00000000	      0.00000000	      1.82778817	    -24.60062380	     21.94796490	     45.97661998	     84.23301536	      0.00000000	      0.00000000
      0.36800000	     23.24152662	     -0.57856171	      0.19799690	      0.51308971	      0.98609580	     -0.28814179	    -25.08752325	      4.52070264	     -7.35785541	      6.26460913	      0.10933806	     -8.72141864	      0.00000000	      0.00000000	     -9.10416238	     -2.47171851	      0.67841416	     54.97884164	      0.95956181	    -13.24766806	      0.00000000	      0.00000000	    -36.63985573	      2.23594774	     -0.84276798	     -0.62952231	    -16.14376810	     10.74734713	     50.63472889	     73.75328052	      0.00000000	      0.00000000	      1.63961153	    -24.77090117	     21.97051838	     46.14463633	     84.25272545	      0.00000000	      0.00000000
      0.37200000	     23.19351163	     -0.60405907	      0.16541338	      0.51872724	      0.98619271	     -0.28763381	    -25.46551438	      4.58002986	     -7.58873501	      6.16651382	      0.10762597	     -8.65640002	      0.00000000	      0.00000000	     -8.49120765	     -2.50732167	      0.60135407	     54.59519626	      0.95286593	    -12.95153485	      0.00000000	      0.00000000	    -36.58035943	      2.17399021	     -0.71682322	     -0.56816988	    -16.10395585	     10.88723903	     50.77282522	     73.74729962	      0.00000000	      0.00000000	      1.51461190	    -24.84775120	     21.93419705	     46.15592178	     84.26017869	      0.00000000	      0.00000000
      0.37600000	     22.93314955	     -0.51102825	      0.11323527	      0.52395256	      0.98584687	     -0.28754561	    -25.88968728	      4.54535479	     -7.55678351	      5.46181833	      0.09532671	     -8.66197793	      0.00000000	      0.00000000	     -7.61988949	     -2.26672327	      0.92150921	     54.37935448	      0.94909878	    -12.93581607	      0.00000000	      0.00000000	    -36.35706024	      2.03234309	     -0.67707738	     -0.42603238	    -16.16626198	     10.98352811	     51.04689833	     73.57868864	      0.00000000	      0.00000000	      1.34665939	    -24.88931250	     21.83538832	     46.28747472	     84.27453093	      0.00000000	      0.00000000
      0.38000000	     22.91421445	     -0.54881152	      0.06547240	      0.52845400	      0.98589953	     -0.28714426	    -26.20559182	      4.61312240	     -7.72957630	      5.35850014	      0.09352347	     -8.59209207	      0.00000000	      0.00000000	     -6.91832361	     -2.31096187	      0.89935602	     54.00755823	      0.94260971	    -12.75075641	      0.00000000	      0.00000000	    -36.48945931	      2.00116424	     -0.52408928	     -0.13633618	    -16.16586538	     10.99773417	     51.20310033	     73.56586132	      0.00000000	      0.00000000	      1.39222889	    -24.96993273	     21.81144766	     46.34269681	     84.27512906	      0.00000000	      0.00000000
      0.38400000	     22.80857665	     -0.59957636	      0.01701819	      0.53342606	      0.98577222	     -0.28682271	    -26.51332392	      4.68140335	     -7.91816647	      5.17087663	      0.09024882	     -8.43777920	      0.00000000	      0.00000000	     -6.21063138	     -2.32727097	      0.90766727	     53.54828307	      0.93459385	    -12.44424028	      0.00000000	      0.00000000	    -36.45588247	      1.96126329	     -0.34124054	      0.02901067	    -16.10550028	     11.04401085	     51.31613673	     73.58117887	      0.00000000	      0.00000000	      1.36346700	    -25.00762504	     21.78856616	     46.46072967	     84.26620452	      0.00000000	      0.00000000
      0.38800000	     22.64986795	     -0.65592783	     -0.01388830	      0.53889202	      0.98546319	     -0.28640788	    -26.82932835	      4.77415510	     -7.97233208	      4.92448673	      0.08594851	     -8.33904032	      0.00000000	      0.00000000	     -5.50964459	     -2.32126496	      1.03601529	     53.04375106	      0.92578810	    -12.11705282	      0.00000000	      0.00000000	    -36.30257321	      1.93768624	     -0.19329091	      0.13134165	    -16.11286153	     11.15901852	     51.47729881	     73.60403701	      0.00000000	      0.00000000	      1.23440413	    -25.07522150	     21.78579806	     46.54500213	     84.25334491	      0.00000000	      0.00000000
      0.39200000	     22.48456077	     -0.65529127	      0.12249634	      0.54453649	      0.98502544	     -0.28628837	    -27.38564022	      4.89881753	     -7.62870052	      4.17751904	      0.07291146	     -8.55488524	      0.00000000	      0.00000000	     -4.75801652	     -2.24003952	      1.36064169	     52.67506651	      0.91935334	    -11.41430605	      0.00000000	      0.00000000	    -36.12315087	      1.96410329	     -0.29966978	      0.22815154	    -16.14153417	     11.26101808	     51.74682375	     73.45979992	      0.00000000	      0.00000000	      0.92519530	    -25.16913774	     21.55672585	     46.78706013	     84.14485045	      0.00000000	      0.00000000
